<svg id="Layer_1" data-name="Layer 1" xmlns="http://www.w3.org/2000/svg" width="461" height="461" viewBox="0 0 461 461">
  <defs>
    <style>
      .cls-1 {
        fill: #743bde;
      }

      .cls-2 {
        fill: #fff;
      }

      .cls-3 {
        fill: #8142f5;
      }
    </style>
  </defs>
  <title>housejs</title>
  <rect class="cls-1" width="461" height="461" rx="96.25"/>
  <g>
    <path class="cls-1" d="M350.4,411.14a54.45,54.45,0,0,1-46.61-26.53l-1.84-3.1a14.19,14.19,0,0,0-19.37-5L237.23,403a54.3,54.3,0,0,1-27.34,7.4h0a54,54,0,0,1-29.91-9l-49.1-32.49a54.09,54.09,0,0,1-24.28-45.2V159.17A54.26,54.26,0,0,1,160.78,105H350.39a54.27,54.27,0,0,1,54.2,54.2V356.94a54.21,54.21,0,0,1-54.19,54.2Z" transform="translate(-25.59 -25.79)"/>
    <path class="cls-2" d="M350.39,125a34.2,34.2,0,0,1,34.2,34.2V356.94a34.21,34.21,0,0,1-20.82,31.47h0a34.17,34.17,0,0,1-42.78-14l-1.84-3.09a34.2,34.2,0,0,0-46.66-12.07l-45.35,26.51a34.21,34.21,0,0,1-36.13-1l-49.1-32.49a34.18,34.18,0,0,1-15.32-28.52V159.17A34.2,34.2,0,0,1,160.78,125H350.39m0-40H160.78a74.28,74.28,0,0,0-74.19,74.2V323.72a74,74,0,0,0,33.25,61.88l49.1,32.49a74.19,74.19,0,0,0,78.38,2.18l40.4-23.61a74.2,74.2,0,0,0,136.87-39.72V159.17A74.29,74.29,0,0,0,350.39,85Z" transform="translate(-25.59 -25.79)"/>
  </g>
  <g>
    <path class="cls-3" d="M350.4,323.58a54.43,54.43,0,0,1-46.61-26.53L302,294a14.17,14.17,0,0,0-19.37-5l-45.35,26.5a54.32,54.32,0,0,1-27.35,7.41h0a54.19,54.19,0,0,1-29.91-9l-49.1-32.5a54.07,54.07,0,0,1-24.28-45.19V159.38a54.25,54.25,0,0,1,54.19-54.19H350.39a54.26,54.26,0,0,1,54.2,54.19v110a54.21,54.21,0,0,1-54.19,54.2Z" transform="translate(-25.59 -25.79)"/>
    <path class="cls-2" d="M350.39,125.18a34.2,34.2,0,0,1,34.2,34.2v110a34.19,34.19,0,0,1-20.82,31.47h0a34.18,34.18,0,0,1-42.78-14l-1.84-3.1a34.18,34.18,0,0,0-46.66-12.06l-45.35,26.5a34.18,34.18,0,0,1-36.13-1l-49.1-32.5a34.18,34.18,0,0,1-15.32-28.51V159.38a34.2,34.2,0,0,1,34.19-34.2H350.39m0-40H160.78a74.28,74.28,0,0,0-74.19,74.2v76.79A74,74,0,0,0,119.84,298l49.1,32.49a74.16,74.16,0,0,0,78.38,2.19l40.4-23.61a74.2,74.2,0,0,0,136.87-39.73v-110a74.29,74.29,0,0,0-74.2-74.2Z" transform="translate(-25.59 -25.79)"/>
  </g>
</svg>
