<?xml version="1.0" encoding="utf-8"?>
<!-- Generator: Adobe Illustrator 24.0.3, SVG Export Plug-In . SVG Version: 6.00 Build 0)  -->
<svg version="1.1" xmlns="http://www.w3.org/2000/svg" xmlns:xlink="http://www.w3.org/1999/xlink" x="0px" y="0px"
	 viewBox="0 0 461 461" style="enable-background:new 0 0 461 461;" xml:space="preserve">
<style type="text/css">
	.st0{fill:#743BDE;}
	.st1{display:none;}
	.st2{display:inline;fill:#743BDE;}
	.st3{display:inline;fill:#FFFFFF;}
	.st4{display:inline;fill:#8142F5;}
	.st5{display:inline;fill:none;stroke:#FFFFFF;stroke-width:40;stroke-miterlimit:10;}
	.st6{fill:#FFFFFF;}
</style>
<g id="Layer_1">
	<title>housejs</title>
	<path class="st0" d="M96.2,0h268.5C417.9,0,461,43.1,461,96.2v268.5c0,53.2-43.1,96.2-96.2,96.2H96.2C43.1,461,0,417.9,0,364.8
		V96.2C0,43.1,43.1,0,96.2,0z"/>
	<g class="st1">
		<path class="st2" d="M324.8,385.4c-19.1,0-36.8-10.1-46.6-26.5l-1.8-3.1c-4-6.7-12.6-8.9-19.4-5l-45.3,26.5
			c-8.3,4.8-17.7,7.4-27.3,7.4l0,0c-10.6,0-21-3.1-29.9-9l-49.1-32.5c-15.2-10-24.3-27-24.3-45.2V133.4c0-29.9,24.3-54.1,54.2-54.2
			h189.6c29.9,0,54.2,24.3,54.2,54.2v197.7C379,361.1,354.7,385.3,324.8,385.4L324.8,385.4z"/>
		<path class="st3" d="M324.8,99.2c18.9,0,34.2,15.3,34.2,34.2c0,0,0,0,0,0v197.7c0,13.7-8.2,26.1-20.8,31.5l0,0
			c-15.8,6.7-34,0.7-42.8-14l-1.8-3.1c-9.6-16.2-30.4-21.6-46.7-12.1L201.6,360c-11.3,6.6-25.3,6.2-36.1-1l-49.1-32.5
			c-9.6-6.3-15.3-17-15.3-28.5V133.4c0-18.9,15.3-34.2,34.2-34.2H324.8 M324.8,59.2H135.2c-41,0-74.1,33.2-74.2,74.2v164.5
			c0,24.9,12.5,48.2,33.3,61.9l49.1,32.5c23.6,15.6,54,16.4,78.4,2.2l40.4-23.6c21.9,34.6,67.8,44.9,102.4,22.9
			c21.5-13.6,34.5-37.3,34.5-62.7V133.4C398.9,92.4,365.7,59.3,324.8,59.2z"/>
	</g>
	<g class="st1">
		<path class="st4" d="M324.8,297.8c-19.1,0-36.8-10.1-46.6-26.5l-1.8-3c-4-6.7-12.6-9-19.4-5l-45.4,26.5
			c-8.3,4.8-17.7,7.4-27.4,7.4l0,0c-10.6,0-21-3.1-29.9-9l-49.1-32.5c-15.2-10-24.3-27-24.3-45.2v-76.8c0-29.9,24.3-54.2,54.2-54.2
			h189.6c29.9,0,54.2,24.3,54.2,54.2v110C379,273.5,354.7,297.8,324.8,297.8L324.8,297.8z"/>
		<path class="st3" d="M324.8,99.4c18.9,0,34.2,15.3,34.2,34.2l0,0v110c0,13.7-8.2,26.1-20.8,31.5l0,0c-15.8,6.7-34,0.7-42.8-14
			l-1.8-3.1c-9.6-16.2-30.4-21.6-46.7-12.1l-45.4,26.5c-11.2,6.6-25.3,6.2-36.1-1l-49.1-32.5c-9.6-6.3-15.3-17-15.3-28.5v-76.8
			c0-18.9,15.3-34.2,34.2-34.2L324.8,99.4 M324.8,59.4H135.2c-41,0-74.1,33.2-74.2,74.2v76.8c0,24.9,12.5,48.1,33.3,61.8l49.1,32.5
			c23.6,15.6,54,16.5,78.4,2.2l40.4-23.6c21.9,34.6,67.8,44.9,102.4,22.9C386,292.6,399,269,399,243.5v-110
			C399,92.6,365.8,59.4,324.8,59.4L324.8,59.4z"/>
	</g>
</g>
<g id="Layer_2" class="st1">
	<path class="st5" d="M354.7,391.5h-152c-25.9,0-46.8-21-46.8-46.8v-152c0-25.9,21-46.8,46.8-46.8h152c25.9,0,46.8,21,46.8,46.8v152
		C401.5,370.5,380.5,391.5,354.7,391.5z"/>
</g>
<g id="Layer_2_copy" class="st1">
	<path class="st5" d="M245.2,282h-152c-25.9,0-46.8-21-46.8-46.8v-152c0-25.9,21-46.8,46.8-46.8h152c25.9,0,46.8,21,46.8,46.8v152
		C292,261.1,271.1,282,245.2,282z"/>
</g>
<g id="Layer_4" class="st1">
	<line class="st5" x1="172.6" y1="380.5" x2="57.9" y2="265.9"/>
</g>
<g id="Layer_4_copy" class="st1">
	<line class="st5" x1="389.4" y1="161.4" x2="274.6" y2="46.8"/>
</g>
<g id="Layer_2_copy_3">
</g>
<g id="Layer_2_copy_2">
</g>
<g id="Layer_4_copy_3">
	<path class="st6" d="M335.9,151.1h-27v-28.6c0-36.8-30-66.8-66.8-66.8h-117c-36.8,0-66.8,30-66.8,66.8V243
		c0,20.4,9.2,38.6,23.6,50.9l85.2,86.5c12.3,15.1,31,24.8,51.9,24.8h117c36.8,0,66.8-30,66.8-66.8V218
		C402.7,181.1,372.8,151.1,335.9,151.1z M98.3,122.5c0-14.8,12-26.8,26.8-26.8h117c14.8,0,26.8,12,26.8,26.8v28.6h-49.9
		c-36.8,0-66.8,30-66.8,66.8v51.9h-27c-6,0-11.6-2-16.1-5.4l-4.6-4.7l-0.1,0.1c-3.7-4.6-6-10.5-6-16.8V122.5z M268.9,191.1V243
		c0,14.8-12,26.8-26.8,26.8h-49.9V218c0-14.8,12-26.8,26.8-26.8H268.9z M362.7,338.5c0,14.8-12,26.8-26.8,26.8h-117
		c-6.1,0-11.8-2.1-16.3-5.6l0.1-0.1l-5.6-5.7c-3.1-4.4-5-9.7-5-15.5v-28.6h49.9c36.8,0,66.8-30,66.8-66.8v-51.9h27
		c14.8,0,26.8,12,26.8,26.8V338.5z"/>
</g>
<g id="Layer_4_copy_2">
</g>
</svg>
